<mxfile host="app.diagrams.net" agent="Mozilla/5.0 (Windows NT 10.0; Win64; x64) AppleWebKit/537.36 (KHTML, like Gecko) Chrome/133.0.0.0 Safari/537.36" version="26.1.0">
  <diagram name="페이지-1" id="Nzl3rKywSYRYgmeRBC9d">
    <mxGraphModel dx="1050" dy="1726" grid="1" gridSize="10" guides="1" tooltips="1" connect="1" arrows="1" fold="1" page="1" pageScale="1" pageWidth="827" pageHeight="1169" math="0" shadow="0">
      <root>
        <mxCell id="0" />
        <mxCell id="1" parent="0" />
        <mxCell id="seBxweN8TRxUuG7xHNLX-11" style="rounded=0;orthogonalLoop=1;jettySize=auto;html=1;exitX=0;exitY=0.5;exitDx=0;exitDy=0;entryX=1;entryY=0.5;entryDx=0;entryDy=0;endArrow=none;startFill=0;" edge="1" parent="1" source="seBxweN8TRxUuG7xHNLX-2" target="seBxweN8TRxUuG7xHNLX-8">
          <mxGeometry relative="1" as="geometry" />
        </mxCell>
        <mxCell id="seBxweN8TRxUuG7xHNLX-13" style="rounded=0;orthogonalLoop=1;jettySize=auto;html=1;entryX=0.5;entryY=1;entryDx=0;entryDy=0;endArrow=none;startFill=0;" edge="1" parent="1" source="seBxweN8TRxUuG7xHNLX-2" target="seBxweN8TRxUuG7xHNLX-5">
          <mxGeometry relative="1" as="geometry" />
        </mxCell>
        <mxCell id="seBxweN8TRxUuG7xHNLX-2" value="&amp;nbsp;회원" style="whiteSpace=wrap;html=1;aspect=fixed;" vertex="1" parent="1">
          <mxGeometry x="370" y="50" width="80" height="80" as="geometry" />
        </mxCell>
        <mxCell id="seBxweN8TRxUuG7xHNLX-3" value="게시글" style="whiteSpace=wrap;html=1;aspect=fixed;" vertex="1" parent="1">
          <mxGeometry x="690" y="310" width="80" height="80" as="geometry" />
        </mxCell>
        <mxCell id="seBxweN8TRxUuG7xHNLX-4" value="댓글" style="whiteSpace=wrap;html=1;aspect=fixed;" vertex="1" parent="1">
          <mxGeometry x="110" y="300" width="80" height="80" as="geometry" />
        </mxCell>
        <mxCell id="seBxweN8TRxUuG7xHNLX-5" value="아이디" style="ellipse;whiteSpace=wrap;html=1;aspect=fixed;" vertex="1" parent="1">
          <mxGeometry x="380" y="-90" width="50" height="50" as="geometry" />
        </mxCell>
        <mxCell id="seBxweN8TRxUuG7xHNLX-6" value="비밀번호" style="ellipse;whiteSpace=wrap;html=1;aspect=fixed;" vertex="1" parent="1">
          <mxGeometry x="460" y="-40" width="50" height="50" as="geometry" />
        </mxCell>
        <mxCell id="seBxweN8TRxUuG7xHNLX-7" value="이름" style="ellipse;whiteSpace=wrap;html=1;aspect=fixed;" vertex="1" parent="1">
          <mxGeometry x="290" y="-40" width="50" height="50" as="geometry" />
        </mxCell>
        <mxCell id="seBxweN8TRxUuG7xHNLX-8" value="이메일" style="ellipse;whiteSpace=wrap;html=1;aspect=fixed;" vertex="1" parent="1">
          <mxGeometry x="260" y="30" width="50" height="50" as="geometry" />
        </mxCell>
        <mxCell id="seBxweN8TRxUuG7xHNLX-12" style="rounded=0;orthogonalLoop=1;jettySize=auto;html=1;exitX=0;exitY=0;exitDx=0;exitDy=0;entryX=0.704;entryY=0.896;entryDx=0;entryDy=0;entryPerimeter=0;endArrow=none;startFill=0;" edge="1" parent="1" source="seBxweN8TRxUuG7xHNLX-2" target="seBxweN8TRxUuG7xHNLX-7">
          <mxGeometry relative="1" as="geometry" />
        </mxCell>
        <mxCell id="seBxweN8TRxUuG7xHNLX-14" style="rounded=0;orthogonalLoop=1;jettySize=auto;html=1;exitX=0;exitY=1;exitDx=0;exitDy=0;entryX=0.97;entryY=0.145;entryDx=0;entryDy=0;entryPerimeter=0;endArrow=none;startFill=0;" edge="1" parent="1" source="seBxweN8TRxUuG7xHNLX-6" target="seBxweN8TRxUuG7xHNLX-2">
          <mxGeometry relative="1" as="geometry" />
        </mxCell>
      </root>
    </mxGraphModel>
  </diagram>
</mxfile>
